<svg xmlns="http://www.w3.org/2000/svg" xmlns:xlink="http://www.w3.org/1999/xlink" version="1.1" x="0px" y="0px" viewBox="0 0 100 125" style="enable-background:new 0 0 100 100;" xml:space="preserve"><path d="M69.3,32.9c-4.1-0.3-8,0.3-11.3,1.9c-0.4,0.1-0.9,0.3-1.3,0.5c-4.3,1.8-9.8,1.8-15.1-0.2c-0.9-0.5-4.1-1.7-5.6-1.9  c-2-0.4-4.1-0.5-6.2-0.3c-10,0.8-17.6,7.7-17.1,15.2c0.2,3,1.7,5.8,4.3,8c3.7,3.2,9.1,4.7,14.8,4.2c5.5-0.5,10.5-2.7,13.7-6.3  c3.1-2.4,4.7-2.7,8.2,0.1c3.2,3.5,8.2,5.7,13.6,6.2c0.7,0.1,1.4,0.1,2.1,0.1c4.9,0,9.5-1.5,12.8-4.3c2.6-2.2,4-5,4.3-8  C86.9,40.6,79.2,33.8,69.3,32.9z M79.9,53.6c-3,2.5-7.6,3.8-12.3,3.4c-4.7-0.4-8.8-2.3-11.5-5.2c-0.1-0.1-0.1-0.1-0.2-0.2  c-2.3-1.9-4.4-2.8-6.4-2.8c-2,0-4,0.9-6.3,2.7c-0.1,0.1-0.1,0.1-0.2,0.2c-2.6,2.9-6.8,4.9-11.6,5.3c-4.8,0.4-9.4-0.9-12.3-3.4  C17.2,52,16.2,50,16,47.9c-0.4-5.7,5.9-10.9,14-11.6c1.8-0.2,3.6-0.1,5.4,0.3c1,0.1,4,1.3,4.6,1.6c0.1,0,0.1,0.1,0.2,0.1  c6.1,2.3,12.5,2.4,17.7,0.2c0.4-0.2,0.8-0.3,1.2-0.4c0.1,0,0.1-0.1,0.2-0.1c2.8-1.4,6.2-2,9.7-1.7c8.1,0.7,14.4,5.9,14,11.6  C82.8,50,81.8,52,79.9,53.6z"/><path d="M28.4,40.5c-2.6,0.3-4.8,1.8-6.4,4.2c-1.4,2.1-1.6,3.8-0.6,5.1c0.8,1.1,2.5,1.5,4.5,1.5c4.3,0,10.3-1.8,14.3-3.2  c0.6-0.2,1-0.7,1.1-1.3c0.1-0.6-0.1-1.2-0.5-1.6C40.5,45,34.4,39.7,28.4,40.5z M24.2,47.8c0.1-0.2,0.2-0.6,0.6-1.2  c1.1-1.6,2.4-2.5,4-2.7c2.5-0.3,5.2,0.9,7.1,2.1C30.5,47.6,25.5,48.4,24.2,47.8z"/><path d="M70.5,40.7c-6-0.8-12.1,4.5-12.4,4.8c-0.5,0.4-0.7,1-0.5,1.6c0.1,0.6,0.5,1.1,1.1,1.3c4,1.4,10.1,3.2,14.3,3.2  c2,0,3.7-0.4,4.5-1.5c1-1.3,0.8-3-0.6-5.1C75.3,42.5,73.1,41,70.5,40.7z M62.9,46.2c2-1.2,4.8-2.4,7.1-2.1c1.6,0.2,3,1.1,4.1,2.7  c0.4,0.6,0.6,1,0.6,1.2C73.4,48.6,68.4,47.8,62.9,46.2z"/><text x="0" y="115" fill="#000000" font-size="5px" font-weight="bold" font-family="'Helvetica Neue', Helvetica, Arial-Unicode, Arial, Sans-serif">Created by Catherine Please</text><text x="0" y="120" fill="#000000" font-size="5px" font-weight="bold" font-family="'Helvetica Neue', Helvetica, Arial-Unicode, Arial, Sans-serif">from the Noun Project</text></svg>