<svg id="Capa_1" enable-background="new 0 0 512 512" height="512" viewBox="0 0 512 512" width="512" xmlns="http://www.w3.org/2000/svg"><g id="XMLID_2436_"><g id="XMLID_47_"><path id="XMLID_55_" d="m427.028 279.391c-4.902 2.543-6.814 8.58-4.271 13.482 10.112 19.49 15.24 40.943 15.24 63.763 0 74.639-60.724 135.362-135.364 135.362-32.63 0-64.072-11.278-88.535-31.756-11.157-9.339-25.13-14.482-39.348-14.483l-76.302-.003c-27.257 0-52.965-14.481-67.091-37.792-7.43-12.261-11.357-26.32-11.357-40.656v-18.514c0-19.734 10.484-38.347 27.362-48.574 4.723-2.862 6.232-9.011 3.37-13.735-2.862-4.723-9.011-6.231-13.735-3.37-6.383 3.868-12.087 8.623-16.997 14.05v-30.985c0-54.933 7.013-109.743 20.845-162.907 6.181-23.757 24.739-42.505 48.433-48.927l124.125-33.645c8.824-2.394 18.226 1.791 22.357 9.946l25.219 49.771c4.437 8.756 4.912 19.013 1.304 28.141-3.607 9.128-10.967 16.289-20.19 19.646l-53.502 19.471c-14.3 5.204-30.048.527-39.19-11.636l-12.343-16.421 6.209-2.904c5.002-2.34 7.161-8.292 4.821-13.295-2.34-5.002-8.292-7.158-13.295-4.821l-6.221 2.911c-8.036 3.759-17.657.93-22.38-6.581-2.939-4.675-9.112-6.083-13.789-3.142-4.675 2.939-6.082 9.113-3.142 13.789 5.763 9.165 14.942 15.063 24.953 16.938l10.786 14.349v3.216c0 37.22 13.6 73.055 38.293 100.903 19.076 21.514 29.582 49.197 29.582 77.95v26.736c0 5.523 4.477 10 10 10s10-4.477 10-10v-26.736c0-19.32-4.061-38.225-11.739-55.59 25.831-28.118 62.14-44.15 100.46-44.15 22.037 0 43.065 5.089 62.499 15.126 4.908 2.536 10.939.611 13.474-4.296s.611-10.939-4.296-13.474c-21.985-11.355-46.77-17.356-71.676-17.356-41.621 0-81.179 16.484-110.408 45.624-3.837-5.992-8.152-11.714-12.931-17.103-16.86-19.014-27.76-42.316-31.654-67.118 14.09 9.492 32.085 11.966 48.828 5.874l53.502-19.471c14.596-5.312 26.241-16.643 31.95-31.088s4.957-30.676-2.063-44.532l-25.219-49.771c-8.396-16.569-27.5-25.069-45.43-20.21l-124.127 33.646c-30.603 8.295-54.572 32.51-62.556 63.194-14.259 54.808-21.489 111.312-21.489 167.943v101.128c0 17.991 4.928 35.634 14.252 51.021 17.727 29.254 49.989 47.427 84.195 47.427l76.302.003c9.532 0 18.947 3.487 26.511 9.819 28.056 23.486 64.058 36.42 101.373 36.42 85.668 0 155.364-69.695 155.364-155.362 0-25.69-6.047-50.924-17.487-72.974-2.543-4.902-8.577-6.815-13.482-4.271z"/><path id="XMLID_56_" d="m227.903 396.254c-3.905-3.905-10.237-3.905-14.143 0-3.905 3.905-3.905 10.237 0 14.143 23.525 23.524 54.802 36.48 88.071 36.48s64.546-12.956 88.071-36.48c3.905-3.905 3.905-10.237 0-14.143-3.905-3.905-10.237-3.905-14.143 0-40.762 40.764-107.092 40.764-147.856 0z"/><path id="XMLID_59_" d="m511.012 66.41c-1.666-3.464-5.168-5.667-9.012-5.667h-41.982l18.116-47.156c1.181-3.075.772-6.534-1.093-9.249-1.866-2.715-4.948-4.337-8.242-4.337h-68.394c-4.277 0-8.08 2.72-9.463 6.767l-34.564 101.159c-1.043 3.054-.549 6.424 1.329 9.05 1.877 2.625 4.907 4.183 8.134 4.183h43.752l-14.417 68.902c-.948 4.531 1.338 9.121 5.525 11.094 1.368.645 2.82.955 4.259.955 2.966 0 5.868-1.321 7.814-3.756l97.036-121.367c2.4-3.002 2.868-7.114 1.202-10.578zm-87.672 86.703 8.349-39.905c.617-2.948-.128-6.016-2.027-8.354s-4.75-3.694-7.761-3.694h-42.076l27.731-81.159h46.689l-18.116 47.156c-1.181 3.075-.772 6.534 1.093 9.249 1.866 2.715 4.948 4.337 8.242 4.337h35.738z"/><path id="XMLID_60_" d="m412.09 259.051c1.86-1.86 2.93-4.44 2.93-7.07 0-2.64-1.07-5.21-2.93-7.07s-4.44-2.93-7.07-2.93-5.21 1.07-7.07 2.93-2.93 4.43-2.93 7.07c0 2.63 1.07 5.21 2.93 7.07s4.44 2.93 7.07 2.93c2.63.001 5.21-1.07 7.07-2.93z"/></g></g></svg>